<?xml version="1.0" encoding="UTF-8" standalone="no"?>
<svg width="12px" height="12px" viewBox="0 0 12 12" version="1.1" xmlns="http://www.w3.org/2000/svg" xmlns:xlink="http://www.w3.org/1999/xlink">
    <!-- Generator: Sketch 41 (35326) - http://www.bohemiancoding.com/sketch -->
    <title>Shape</title>
    <desc>Created with Sketch.</desc>
    <defs>
        <rect id="path-1" x="0" y="0" width="16" height="16"></rect>
    </defs>
    <g id="Page-1" stroke="none" stroke-width="1" fill="none" fill-rule="evenodd">
        <g id="Shape" transform="translate(-2.000000, -2.000000)">
            <mask id="mask-2" fill="white">
                <use xlink:href="#path-1"></use>
            </mask>
            <use id="Mask" fill-opacity="0" fill="#FFFFFF" xlink:href="#path-1"></use>
            <path d="M3.12652008,5.10933134 L3.89351248,5.87896782 L5.90686751,3.85867208 L5.13987512,3.08903561 C4.94812702,2.89662649 4.66050487,2.89662649 4.56463082,3.08903561 L3.12652008,4.53210399 C2.93477198,4.62830855 2.93477198,4.91692223 3.12652008,5.10933134 L3.12652008,5.10933134 Z M9.74182949,11.7474459 L11.7551845,9.72715017 L6.57798586,4.62830855 L4.66050487,6.64860429 L9.74182949,11.7474459 L9.74182949,11.7474459 Z M12.1386807,10.6891958 L10.70057,12.1322641 L12.8097991,12.7094915 L12.1386807,10.6891958 L12.1386807,10.6891958 Z M2.35952769,3.76246752 L3.70176438,2.41560369 C3.98938653,2.12699002 4.94812702,1.64596722 5.71511942,2.41560369 L12.8097991,9.4385365 C12.9056731,9.53474106 12.9056731,9.53474106 12.9056731,9.63094561 L13.9602877,13.3829234 C14.0561617,13.5753325 13.9602877,13.7677416 13.8644136,13.8639462 C13.7685396,13.9601508 13.4809174,14.0563553 13.3850434,13.9601508 L9.64595544,12.9019006 C9.55008139,12.9019006 9.45420734,12.8056961 9.45420734,12.8056961 L2.35952769,5.78276326 C1.88015744,5.2055359 1.88015744,4.33969487 2.35952769,3.76246752 L2.35952769,3.76246752 Z" fill="#BABABA" mask="url(#mask-2)"></path>
        </g>
    </g>
</svg>