<?xml version="1.0" encoding="UTF-8" standalone="no"?>
<svg width="12px" height="12px" viewBox="0 0 12 12" version="1.1" xmlns="http://www.w3.org/2000/svg" xmlns:xlink="http://www.w3.org/1999/xlink">
    <!-- Generator: Sketch 41 (35326) - http://www.bohemiancoding.com/sketch -->
    <title>Combined Shape</title>
    <desc>Created with Sketch.</desc>
    <defs>
        <rect id="path-1" x="0" y="0" width="16" height="16"></rect>
    </defs>
    <g id="Page-1" stroke="none" stroke-width="1" fill="none" fill-rule="evenodd">
        <g id="Combined-Shape" transform="translate(-2.000000, -2.000000)">
            <mask id="mask-2" fill="white">
                <use xlink:href="#path-1"></use>
            </mask>
            <use id="Mask" fill-opacity="0" fill="#FFFFFF" xlink:href="#path-1"></use>
            <path d="M8,2 C4.69160148,2 2,4.69160148 2,8 C2,11.3083985 4.69160148,14 8,14 C11.3083985,14 14,11.3083985 14,8 C14,4.69160148 11.3083985,2 8,2 L8,2 Z M8,12.7233018 C5.3955949,12.7233018 3.27657472,10.6045286 3.27657472,8 C3.27657472,5.39547139 5.3955949,3.27669823 8,3.27669823 C10.6044051,3.27669823 12.7234253,5.39547139 12.7234253,8 C12.7234253,10.6045286 10.6044051,12.7233018 8,12.7233018 Z M11.1269658,7.81473858 L8.43054755,7.81473858 L8.43054755,4.57266365 C8.43054755,4.29983532 8.20934541,4.07863318 7.93651709,4.07863318 C7.66368876,4.07863318 7.44248662,4.29983532 7.44248662,4.57266365 L7.44248662,8.30876904 C7.44248662,8.58159737 7.66368876,8.80279951 7.93651709,8.80279951 L11.1269658,8.80279951 C11.3997942,8.80279951 11.6209963,8.58159737 11.6209963,8.30876904 C11.6209963,8.03594072 11.3997942,7.81473858 11.1269658,7.81473858 Z" fill="#BABABA" mask="url(#mask-2)"></path>
        </g>
    </g>
</svg>