<?xml version="1.0" encoding="UTF-8" standalone="no"?>
<svg width="181px" height="16px" viewBox="0 0 181 16" version="1.1" xmlns="http://www.w3.org/2000/svg" xmlns:xlink="http://www.w3.org/1999/xlink">
    <!-- Generator: Sketch 41 (35326) - http://www.bohemiancoding.com/sketch -->
    <title>Group 6</title>
    <desc>Created with Sketch.</desc>
    <defs></defs>
    <g id="Page-1" stroke="none" stroke-width="1" fill="none" fill-rule="evenodd">
        <g id="Mobile-Portrait-Copy" transform="translate(-97.000000, -24.000000)">
            <g id="Group-6" transform="translate(97.000000, 24.000000)">
                <path d="M13.2331245,14.8666667 L13.2331245,0.493033854 L0.176757813,0.493033854 L0.176757813,14.8666667 L4.28961033,14.8666667 L4.28961033,3.83990885 L9.12027201,3.83990885 L9.12027201,14.8666667 L13.2331245,14.8666667 Z M24.8150724,14.8666667 L29.1995284,14.8666667 L24.6307701,0.493033854 L19.4703042,0.493033854 L14.9015458,14.8666667 L19.0919993,14.8666667 L19.8195086,12.0078776 L24.0875631,12.0078776 L24.8150724,14.8666667 Z M21.9147354,3.81002604 L21.9923364,3.81002604 L23.3406536,9.02955729 L20.5664182,9.02955729 L21.9147354,3.81002604 Z M30.654547,0.493033854 L30.654547,14.8666667 L34.7673995,14.8666667 L34.7673995,10.9420573 L36.765625,10.9420573 C40.0345667,10.9420573 42.2558951,8.9000651 42.2558951,5.73248698 C42.2558951,2.53502604 40.1606683,0.493033854 37.0469286,0.493033854 L30.654547,0.493033854 Z M34.7673995,3.67057292 L35.9508146,3.67057292 C37.2894317,3.67057292 38.1042421,4.37779948 38.1042421,5.74244792 C38.1042421,7.11705729 37.2894317,7.82428385 35.9217142,7.82428385 L34.7673995,7.82428385 L34.7673995,3.67057292 Z M59.9586211,0.493033854 L55.2055605,0.493033854 L52.0821206,8.88014323 L52.0045196,8.88014323 L48.8713796,0.493033854 L44.1183189,0.493033854 L44.1183189,14.8666667 L47.7073647,14.8666667 L47.7073647,6.53932292 L47.7849657,6.53932292 L50.937506,14.6973307 L53.1394341,14.6973307 L56.2919743,6.53932292 L56.3695753,6.53932292 L56.3695753,14.8666667 L59.9586211,14.8666667 L59.9586211,0.493033854 Z M71.7636719,14.8666667 L76.1481279,14.8666667 L71.5793695,0.493033854 L66.4189036,0.493033854 L61.8501453,14.8666667 L66.0405988,14.8666667 L66.7681081,12.0078776 L71.0361626,12.0078776 L71.7636719,14.8666667 Z M68.8633348,3.81002604 L68.9409358,3.81002604 L70.289253,9.02955729 L67.5150176,9.02955729 L68.8633348,3.81002604 Z" id="ПАРМА" fill="#343434"></path>
                <path d="M91.4764791,14.8666667 L91.4764791,0.493033854 L87.3636266,0.493033854 L87.3636266,5.9516276 L82.4359637,5.9516276 L82.4359637,0.493033854 L78.3231112,0.493033854 L78.3231112,14.8666667 L82.4359637,14.8666667 L82.4359637,9.30846354 L87.3636266,9.30846354 L87.3636266,14.8666667 L91.4764791,14.8666667 Z M100.749798,0.244010417 C96.4235423,0.244010417 93.6978075,3.09283854 93.6978075,7.68483073 C93.6978075,12.2768229 96.4138422,15.1156901 100.749798,15.1156901 C105.076053,15.1156901 107.801788,12.2768229 107.801788,7.68483073 C107.801788,3.09283854 105.076053,0.244010417 100.749798,0.244010417 Z M100.749798,3.61080729 C102.466719,3.61080729 103.611334,5.19459635 103.611334,7.68483073 C103.611334,10.1651042 102.47642,11.7488932 100.749798,11.7488932 C99.0231755,11.7488932 97.888261,10.1651042 97.888261,7.68483073 C97.888261,5.19459635 99.0328756,3.61080729 100.749798,3.61080729 Z M116.803503,14.8666667 C119.800841,14.8666667 121.740866,13.2031901 121.740866,10.6830729 C121.740866,8.78053385 120.159745,7.31627604 118.268221,7.26647135 L118.268221,7.18678385 C119.888142,6.97760417 121.110358,5.73248698 121.110358,4.07897135 C121.110358,1.83776042 119.432236,0.493033854 116.5707,0.493033854 L109.693312,0.493033854 L109.693312,14.8666667 L116.803503,14.8666667 Z M113.806164,3.39166667 L115.455185,3.39166667 C116.493099,3.39166667 117.113906,3.92955729 117.113906,4.81608073 C117.113906,5.68268229 116.454298,6.25045573 115.396985,6.25045573 L113.806164,6.25045573 L113.806164,3.39166667 Z M113.806164,11.9680339 L113.806164,8.67096354 L115.590987,8.67096354 C116.822903,8.67096354 117.560112,9.26861979 117.560112,10.2945964 C117.560112,11.3803385 116.832603,11.9680339 115.561887,11.9680339 L113.806164,11.9680339 Z M130.228474,0.244010417 C125.902219,0.244010417 123.176484,3.09283854 123.176484,7.68483073 C123.176484,12.2768229 125.892519,15.1156901 130.228474,15.1156901 C134.554729,15.1156901 137.280464,12.2768229 137.280464,7.68483073 C137.280464,3.09283854 134.554729,0.244010417 130.228474,0.244010417 Z M130.228474,3.61080729 C131.945396,3.61080729 133.09001,5.19459635 133.09001,7.68483073 C133.09001,10.1651042 131.955096,11.7488932 130.228474,11.7488932 C128.501852,11.7488932 127.366937,10.1651042 127.366937,7.68483073 C127.366937,5.19459635 128.511552,3.61080729 130.228474,3.61080729 Z M145.826273,15.2651042 C149.46382,15.2651042 152.121653,12.8844401 152.335056,9.46783854 L148.358005,9.46783854 C148.105802,10.9022135 147.13579,11.7986979 145.835973,11.7986979 C144.128751,11.7986979 143.071438,10.2647135 143.071438,7.66490885 C143.071438,5.09498698 144.138452,3.5610026 145.826273,3.5610026 C147.12609,3.5610026 148.105802,4.46744792 148.338605,5.8719401 L152.315656,5.8719401 C152.092553,2.51510417 149.376518,0.0945963542 145.826273,0.0945963542 C141.548518,0.0945963542 138.880984,2.93346354 138.880984,7.67486979 C138.880984,12.416276 141.538818,15.2651042 145.826273,15.2651042 Z M161.152469,14.8666667 L161.152469,3.84986979 L164.838516,3.84986979 L164.838516,0.493033854 L153.353569,0.493033854 L153.353569,3.84986979 L157.039616,3.84986979 L157.039616,14.8666667 L161.152469,14.8666667 Z M176.09066,14.8666667 L180.203512,14.8666667 L180.203512,0.493033854 L176.284662,0.493033854 L171.143596,8.49166667 L171.065995,8.49166667 L171.065995,0.493033854 L166.953143,0.493033854 L166.953143,14.8666667 L170.871993,14.8666667 L176.013059,6.86803385 L176.09066,6.86803385 L176.09066,14.8666667 Z" id="НОВОСТИ" fill="#EA2F2F"></path>
            </g>
        </g>
    </g>
</svg>