<?xml version="1.0" encoding="UTF-8" standalone="no"?>
<svg width="18px" height="18px" viewBox="0 0 18 18" version="1.1" xmlns="http://www.w3.org/2000/svg" xmlns:xlink="http://www.w3.org/1999/xlink">
    <!-- Generator: Sketch 41 (35326) - http://www.bohemiancoding.com/sketch -->
    <title>Shape</title>
    <desc>Created with Sketch.</desc>
    <defs></defs>
    <g id="Page-1" stroke="none" stroke-width="1" fill="none" fill-rule="evenodd">
        <g id="Desktop-HD-Copy-7" transform="translate(-1147.000000, -21.000000)" fill="#9B9B9B">
            <path d="M1164.55948,36.4322286 L1160.64907,32.5218927 C1160.62829,32.5011106 1160.60391,32.4865847 1160.58219,32.4672409 C1161.35163,31.3000655 1161.80071,29.9029212 1161.80071,28.4004283 C1161.80071,24.313265 1158.48745,21 1154.40036,21 C1150.31327,21 1147,24.313265 1147,28.4003564 C1147,32.4873758 1150.31319,35.8007127 1154.40028,35.8007127 C1155.90285,35.8007127 1157.29992,35.3516332 1158.4671,34.5821934 C1158.48644,34.6038384 1158.50089,34.628216 1158.52168,34.6489981 L1162.43216,38.5594778 C1163.01959,39.1468407 1163.97197,39.1468407 1164.55948,38.5594778 C1165.14684,37.9720429 1165.14684,37.0196635 1164.55948,36.4322286 L1164.55948,36.4322286 Z M1154.40036,33.2352424 C1151.73004,33.2352424 1149.5654,31.0705999 1149.5654,28.4003564 C1149.5654,25.7300409 1151.73011,23.5653984 1154.40036,23.5653984 C1157.07053,23.5653984 1159.23524,25.7301128 1159.23524,28.4003564 C1159.23524,31.0705999 1157.07053,33.2352424 1154.40036,33.2352424 L1154.40036,33.2352424 Z" id="Shape"></path>
        </g>
    </g>
</svg>